<?xml version="1.0" encoding="UTF-8" standalone="no"?>
<svg
   xmlns:dc="http://purl.org/dc/elements/1.1/"
   xmlns:cc="http://creativecommons.org/ns#"
   xmlns:rdf="http://www.w3.org/1999/02/22-rdf-syntax-ns#"
   xmlns:svg="http://www.w3.org/2000/svg"
   xmlns="http://www.w3.org/2000/svg"
   xmlns:sodipodi="http://sodipodi.sourceforge.net/DTD/sodipodi-0.dtd"
   xmlns:inkscape="http://www.inkscape.org/namespaces/inkscape"
   id="LOGOS"
   viewBox="0 0 125.36 129.60001"
   version="1.1"
   sodipodi:docname="Vagrant_VerticalLogo_FullColor_RGB.svg"
   width="125.36"
   height="129.60001"
   inkscape:version="1.0.2 (1.0.2+r75+1)">
  <metadata
     id="metadata31">
    <rdf:RDF>
      <cc:Work
         rdf:about="">
        <dc:format>image/svg+xml</dc:format>
        <dc:type
           rdf:resource="http://purl.org/dc/dcmitype/StillImage" />
      </cc:Work>
    </rdf:RDF>
  </metadata>
  <sodipodi:namedview
     pagecolor="#ffffff"
     bordercolor="#666666"
     borderopacity="1"
     objecttolerance="10"
     gridtolerance="10"
     guidetolerance="10"
     inkscape:pageopacity="0"
     inkscape:pageshadow="2"
     inkscape:window-width="1920"
     inkscape:window-height="1051"
     id="namedview29"
     showgrid="false"
     inkscape:zoom="3.4379845"
     inkscape:cx="62.68"
     inkscape:cy="101.01"
     inkscape:window-x="1920"
     inkscape:window-y="0"
     inkscape:window-maximized="1"
     inkscape:current-layer="LOGOS" />
  <defs
     id="defs4">
    <style
       id="style2">.cls-1{fill:#0f4bd7;}.cls-2{fill:#1563ff;}</style>
  </defs>
  <polygon
     class="cls-1"
     points="137.69,54.53 137.69,64.55 114.89,113.73 103.49,121.58 103.49,157.59 127.92,143.51 166.18,49.83 166.18,37.96 "
     id="polygon22"
     transform="translate(-40.82,-27.99)" />
  <polygon
     class="cls-1"
     points="86.4,44.78 86.28,44.72 69.31,54.53 69.31,64.55 92.1,115.89 103.49,110.25 103.49,95.94 86.4,56.05 "
     id="polygon24"
     transform="translate(-40.82,-27.99)" />
  <polygon
     class="cls-2"
     points="120.59,44.66 120.59,44.68 120.59,44.68 120.59,44.68 120.59,56.05 103.49,95.94 103.49,109.28 92.1,115.89 69.31,64.55 69.31,54.52 86.41,44.68 57.91,27.99 40.82,37.96 40.82,50.19 79.29,143.62 103.49,157.59 103.49,122.49 114.89,115.89 114.75,115.8 137.69,64.55 137.69,54.53 137.69,54.52 166.18,37.96 149.09,27.99 120.61,44.67 "
     id="polygon26"
     transform="translate(-40.82,-27.99)" />
</svg>
